<svg xmlns="http://www.w3.org/2000/svg" viewBox="0 0 256 256">
  <defs>
    <linearGradient id="bg" x1="0" y1="0" x2="1" y2="1">
      <stop offset="0%" stop-color="#1c7a71" />
      <stop offset="100%" stop-color="#125a54" />
    </linearGradient>
    <linearGradient id="glow" x1="0" y1="0" x2="1" y2="1">
      <stop offset="0%" stop-color="#f7d9a2" stop-opacity="0.95" />
      <stop offset="100%" stop-color="#f4b97e" stop-opacity="0.82" />
    </linearGradient>
  </defs>
  <rect width="256" height="256" rx="64" fill="url(#bg)" />
  <circle cx="182" cy="72" r="34" fill="url(#glow)" opacity="0.9" />
  <path d="M87 60c-20 18-31 41-31 66 0 39 28 70 72 70 47 0 72-31 72-68 0-27-13-50-34-68-13 23-28 33-49 33-11 0-21-3-30-8z" fill="#fbf7f1" opacity="0.94"/>
  <path d="M128 86c-24 0-43 18-43 40 0 23 19 42 43 42 24 0 43-19 43-42 0-22-19-40-43-40z" fill="#1c7a71"/>
  <path d="M107 128h42" stroke="#fbf7f1" stroke-width="12" stroke-linecap="round" />
  <path d="M128 107v42" stroke="#fbf7f1" stroke-width="12" stroke-linecap="round" />
</svg>
